#!OML:ASF F:\VICON\USERDATA\INSTALL\rory3\rory3.ASF
:FULLY-SPECIFIED
:DEGREES
569
root 5.19413 16.9424 1.99015 7.04782 -14.3833 -7.47991
lowerback 21.5678 -0.114123 3.67278
upperback 5.60372 0.68576 1.5141
thorax -5.90162 0.273062 -0.637779
lowerneck -15.3318 -0.647984 -2.03553
upperneck 38.4049 -0.130782 -0.969858
head 16.3383 -0.561308 -0.106504
rclavicle 1.96797e-014 -7.95139e-015
rhumerus -36.1142 -7.19027 -17.3678
rradius 34.5953
rwrist 4.36841
rhand -16.915 -45.3665
rfingers 7.12502
rthumb 9.31735 -75.1406
lclavicle 1.96797e-014 -7.95139e-015
lhumerus -36.5761 8.37213 11.3178
lradius 26.8042
lwrist 15.4337
lhand -24.7655 -33.8469
lfingers 7.12502
lthumb 1.73808 -3.8742
rfemur -101.627 -0.14029 27.4949
rtibia 96.2339
rfoot 48.7071 1.19316
rtoes -4.18308
lfemur -28.1781 6.83163 -23.3769
ltibia 42.0522
lfoot -18.0454 8.7845
ltoes 12.9642
570
root 5.19299 16.943 1.98384 7.15208 -14.3292 -7.63264
lowerback 21.6289 -0.146353 3.80175
upperback 5.53906 0.680604 1.55457
thorax -6.00226 0.26734 -0.666432
lowerneck -15.1325 -0.617449 -2.0038
upperneck 38.2746 -0.0758601 -1.03687
head 16.2206 -0.541829 -0.129606
rclavicle -2.5842e-014 2.46493e-014
rhumerus -36.0921 -7.15344 -17.381
rradius 34.6108
rwrist 4.52513
rhand -17.3738 -45.0918
rfingers 7.12502
rthumb 8.87464 -74.8852
lclavicle -2.5842e-014 2.46493e-014
lhumerus -36.4309 8.55416 11.1646
lradius 26.5502
lwrist 15.5305
lhand -23.572 -36.6613
lfingers 7.12502
lthumb 2.89066 -6.70115
rfemur -101.605 -0.0967612 27.6458
rtibia 96.1524
rfoot 48.6941 0.89238
rtoes -3.7009
lfemur -28.3204 6.81983 -23.2123
ltibia 42.1015
lfoot -17.9855 8.78073
ltoes 12.8118
571
root 5.19327 16.9438 1.98067 7.1657 -14.1932 -7.69814
lowerback 21.7106 -0.193613 3.91398
upperback 5.512 0.651172 1.57961
thorax -6.07373 0.250732 -0.695836
lowerneck -14.8682 -0.663825 -2.15577
upperneck 38.0363 -0.155203 -0.907035
head 16.0334 -0.575114 -0.0565501
rclavicle -2.20651e-014 -3.97569e-016
rhumerus -36.0969 -7.14878 -17.3681
rradius 34.5855
rwrist 4.436
rhand -18.133 -44.776
rfingers 7.12502
rthumb 8.14194 -74.5992
lclavicle -2.20651e-014 -3.97569e-016
lhumerus -36.1872 8.98865 10.8137
lradius 27.178
lwrist 17.0423
lhand -21.0542 -34.7517
lfingers 7.12502
lthumb 5.32205 -4.83854
rfemur -101.57 -0.197489 27.7129
rtibia 96.146
rfoot 48.6717 0.665839
rtoes -3.23296
lfemur -28.3481 6.72489 -23.1355
ltibia 42.1183
lfoot -17.9377 8.75418
ltoes 12.75
572
root 5.19291 16.9431 1.97839 7.1483 -14.0836 -7.64807
lowerback 21.7144 -0.222946 3.89865
upperback 5.5306 0.609086 1.57278
thorax -6.0572 0.231095 -0.683472
lowerneck -14.8323 -0.689388 -2.21212
upperneck 37.9833 -0.210238 -0.82018
head 15.9979 -0.593129 -0.0178486
rclavicle -2.40529e-014 3.10104e-014
rhumerus -36.1147 -7.0861 -17.4232
rradius 34.5923
rwrist 4.03486
rhand -18.9843 -44.6838
rfingers 7.12502
rthumb 7.32033 -74.5372
lclavicle -2.40529e-014 3.10104e-014
lhumerus -35.8605 8.50536 11.2309
lradius 30.1915
lwrist 18.7501
lhand -19.9793 -7.19269
lfingers 7.12502
lthumb 6.35976 22.6918
rfemur -101.57 -0.305104 27.6679
rtibia 96.1674
rfoot 48.6369 0.165529
rtoes -2.64094
lfemur -28.3475 6.6063 -23.1792
ltibia 42.0915
lfoot -17.9003 8.74943
ltoes 12.6387
573
root 5.19129 16.946 1.97548 7.10511 -14.0244 -7.50298
lowerback 21.7012 -0.243363 3.76774
upperback 5.57622 0.548593 1.52725
thorax -6.00438 0.20437 -0.642311
lowerneck -14.937 -0.647692 -2.09497
upperneck 38.0223 -0.145563 -0.914304
head 16.0426 -0.563243 -0.0690361
rclavicle -6.1822e-014 2.34566e-014
rhumerus -36.0732 -7.06028 -17.5345
rradius 34.6758
rwrist 3.7446
rhand -19.4922 -44.9077
rfingers 7.12502
rthumb 6.83001 -74.7775
lclavicle -6.1822e-014 2.34566e-014
lhumerus -35.9047 8.90882 10.972
lradius 28.8632
lwrist 18.0035
lhand -20.9619 -19.3042
lfingers 7.12502
lthumb 5.41112 10.6067
rfemur -101.562 -0.373713 27.5384
rtibia 96.1457
rfoot 48.5852 -0.61241
rtoes -1.82628
lfemur -28.3128 6.47812 -23.3117
ltibia 42.0177
lfoot -17.8823 8.77086
ltoes 12.8096
574
root 5.19083 16.9489 1.97375 7.08872 -13.9347 -7.44336
lowerback 21.7535 -0.286397 3.72497
upperback 5.5833 0.485991 1.5245
thorax -6.0266 0.174253 -0.604627
lowerneck -15.0386 -0.62298 -2.07472
upperneck 38.0534 -0.0954821 -0.955338
head 16.0832 -0.545903 -0.0823925
rclavicle 7.7526e-015 -2.5842e-014
rhumerus -35.9678 -6.95226 -17.6001
rradius 34.6997
rwrist 3.6267
rhand -19.6288 -45.0524
rfingers 7.12502
rthumb 6.69813 -74.9264
lclavicle 7.7526e-015 -2.5842e-014
lhumerus -36.4031 9.53724 10.4973
lradius 25.3443
lwrist 15.6362
lhand -21.1489 -55.2083
lfingers 7.12502
lthumb 5.23062 -25.2929
rfemur -101.533 -0.455075 27.4981
rtibia 96.1193
rfoot 48.6119 -0.750631
rtoes -1.38066
lfemur -28.2657 6.32595 -23.3568
ltibia 41.9246
lfoot -17.8621 8.79345
ltoes 13.0546
575
root 5.19132 16.9502 1.97523 7.09963 -13.8733 -7.44209
lowerback 21.7801 -0.309614 3.71609
upperback 5.53434 0.460776 1.56468
thorax -6.09514 0.160914 -0.549535
lowerneck -14.9186 -0.615171 -2.11772
upperneck 38.0536 -0.0621607 -0.986537
head 16.0542 -0.542678 -0.081933
rclavicle -1.49089e-014 -3.61788e-014
rhumerus -35.9061 -6.78657 -17.5737
rradius 34.6597
rwrist 3.64312
rhand -19.5191 -45.1904
rfingers 7.12502
rthumb 6.80408 -75.061
lclavicle -1.49089e-014 -3.61788e-014
lhumerus -36.7678 9.06609 10.7852
lradius 24.1227
lwrist 14.2098
lhand -22.0549 -63.457
lfingers 7.12502
lthumb 4.35578 -33.5218
rfemur -101.506 -0.514041 27.5164
rtibia 96.1338
rfoot 48.6529 -0.440126
rtoes -1.64618
lfemur -28.2206 6.21285 -23.3567
ltibia 41.8189
lfoot -17.8174 8.80332
ltoes 13.2036
576
root 5.19254 16.9538 1.97704 7.07968 -13.8182 -7.41206
lowerback 21.7869 -0.328975 3.6919
upperback 5.50409 0.434394 1.59092
thorax -6.13308 0.147794 -0.500433
lowerneck -14.7106 -0.61718 -2.21289
upperneck 37.9922 -0.0606961 -0.939635
head 15.9721 -0.548406 -0.0430084
rclavicle 2.40529e-014 2.14687e-014
rhumerus -35.8464 -6.73782 -17.5198
rradius 34.6024
rwrist 3.70719
rhand -19.5105 -45.315
rfingers 7.12502
rthumb 6.81235 -75.1854
lclavicle 2.40529e-014 2.14687e-014
lhumerus -36.3758 6.82731 12.2383
lradius 26.9707
lwrist 16.3301
lhand -24.3887 -36.3105
lfingers 7.12502
lthumb 2.10195 -6.34108
rfemur -101.446 -0.596182 27.5078
rtibia 96.1708
rfoot 48.5403 -0.158887
rtoes -2.62187
lfemur -28.1237 6.09799 -23.389
ltibia 41.7069
lfoot -17.8072 8.83554
ltoes 13.547
577
root 5.19676 16.9595 1.98036 7.07175 -13.7275 -7.39929
lowerback 21.7777 -0.379 3.75033
upperback 5.52543 0.381787 1.60018
thorax -6.1063 0.122426 -0.509833
lowerneck -14.7656 -0.636961 -2.31161
upperneck 38.0057 -0.0973889 -0.834703
head 15.993 -0.563493 0.0133264
rclavicle 8.34896e-015 -1.19271e-015
rhumerus -35.727 -6.77027 -17.4984
rradius 34.4623
rwrist 3.71444
rhand -19.7074 -45.2552
rfingers 7.12502
rthumb 6.62227 -75.1317
lclavicle 8.34896e-015 -1.19271e-015
lhumerus -36.8082 7.13784 12.3164
lradius 27.0572
lwrist 15.5094
lhand -25.3794 -37.675
lfingers 7.12502
lthumb 1.1451 -7.69833
rfemur -101.379 -0.753309 27.5215
rtibia 96.2319
rfoot 48.3603 -0.120657
rtoes -3.01451
lfemur -28.0045 5.90195 -23.4129
ltibia 41.5868
lfoot -17.7698 8.9627
ltoes 13.8125
578
root 5.20018 16.9654 1.98311 7.08417 -13.7055 -7.39569
lowerback 21.7069 -0.395977 3.82006
upperback 5.57408 0.368146 1.5875
thorax -6.01619 0.116898 -0.55977
lowerneck -14.948 -0.656268 -2.27021
upperneck 38.1252 -0.115955 -0.877836
head 16.0994 -0.572694 -0.0176555
rclavicle 7.55382e-015 6.75868e-015
rhumerus -35.6697 -6.85533 -17.4892
rradius 34.3152
rwrist 3.69237
rhand -19.8103 -45.2653
rfingers 7.12502
rthumb 6.52298 -75.1449
lclavicle 7.55382e-015 6.75868e-015
lhumerus -36.8998 7.16724 12.4267
lradius 26.9494
lwrist 15.1068
lhand -25.4336 -37.0498
lfingers 7.12502
lthumb 1.0928 -7.07282
rfemur -101.326 -0.81728 27.5319
rtibia 96.2721
rfoot 48.2859 -0.622871
rtoes -2.05004
lfemur -27.9377 5.73837 -23.4282
ltibia 41.4562
lfoot -17.694 9.11182
ltoes 13.881
579
root 5.20069 16.9702 1.98321 7.09268 -13.7266 -7.29116
lowerback 21.5775 -0.377521 3.76369
upperback 5.62962 0.367509 1.53995
thorax -5.88902 0.119566 -0.579051
lowerneck -15.0835 -0.664447 -2.15257
upperneck 38.2131 -0.115686 -0.995019
head 16.1778 -0.572831 -0.090934
rclavicle 2.18663e-015 1.63003e-014
rhumerus -35.6956 -7.00022 -17.4681
rradius 34.3977
rwrist 3.39784
rhand -19.5809 -45.5069
rfingers 7.12502
rthumb 6.74444 -75.3795
lclavicle 2.18663e-015 1.63003e-014
lhumerus -36.7454 9.34245 11.0007
lradius 26.0013
lwrist 15.7815
lhand -18.7924 -48.5791
lfingers 7.12502
lthumb 7.50556 -18.7323
rfemur -101.323 -0.807899 27.4338
rtibia 96.2849
rfoot 48.3502 -1.00061
rtoes -1.1283
lfemur -27.9312 5.59142 -23.5391
ltibia 41.3426
lfoot -17.6526 9.24025
ltoes 13.9028
580
root 5.2014 16.974 1.98278 7.08894 -13.7064 -7.14967
lowerback 21.5126 -0.374879 3.65037
upperback 5.664 0.339683 1.50398
thorax -5.82001 0.108463 -0.546291
lowerneck -15.2046 -0.662573 -2.10543
upperneck 38.2732 -0.109939 -1.03081
head 16.2387 -0.569363 -0.115056
rclavicle 1.53064e-014 -1.86858e-014
rhumerus -35.721 -7.10049 -17.4459
rradius 34.7062
rwrist 2.84411
rhand -19.2035 -45.9552
rfingers 7.12502
rthumb 7.10867 -75.8158
lclavicle 1.53064e-014 -1.86858e-014
lhumerus -36.6497 9.01686 11.3714
lradius 26.1705
lwrist 15.2399
lhand -21.1362 -49.6685
lfingers 7.12502
lthumb 5.24284 -19.7533
rfemur -101.335 -0.853887 27.3212
rtibia 96.3127
rfoot 48.4233 -0.601385
rtoes -1.04998
lfemur -27.9374 5.39955 -23.6804
ltibia 41.2691
lfoot -17.5614 9.38257
ltoes 14.1157
